<?xml version="1.0" encoding="UTF-8"?>
<svg version="1.1" xmlns="http://www.w3.org/2000/svg" width="499" height="279">
<path d="M0 0 C2.6875 2.375 2.6875 2.375 5 5 C5.55300781 5.57363281 6.10601562 6.14726563 6.67578125 6.73828125 C19.23226196 20.15516321 23.14800152 38.76793128 23.1328125 56.640625 C23.13463028 57.49911041 23.13644806 58.35759583 23.13832092 59.24209595 C23.14144039 62.81733552 23.13951717 66.39101574 23.07910156 69.96582031 C22.56951326 80.2940284 22.56951326 80.2940284 25.69384766 89.82910156 C27.68889942 91.79960312 29.71065472 93.38994769 32 95 C39.99074862 104.52432664 47.98370955 116.02733031 47 129 C45.84346496 132.38664691 44.93870634 134.87197127 42 137 C28.35507728 142.40111524 12.22775334 137.39827801 -0.875 132.4375 C-5.76827905 130.85546241 -8.28633496 131.00719436 -13 133.0625 C-13.845625 133.52785156 -14.69125 133.99320313 -15.5625 134.47265625 C-25.24192956 138.77340279 -35.36139896 139.51232477 -45.82861328 139.44604492 C-47.86724075 139.4375324 -49.90305258 139.46643499 -51.94140625 139.49804688 C-68.17693038 139.58595165 -85.0884999 135.31321456 -97.25390625 123.90625 C-104.72081919 115.75445243 -110.6022135 107.64212376 -114 97 C-114.24951416 96.23115479 -114.49902832 95.46230957 -114.75610352 94.67016602 C-117.00940276 87.19805381 -117.65540132 79.956657 -118.0625 72.1875 C-118.19189234 69.82641001 -118.3283687 67.46569531 -118.47265625 65.10546875 C-118.52687744 64.07574951 -118.58109863 63.04603027 -118.63696289 61.98510742 C-119.236293 57.05705814 -120.29028227 53.13882911 -124.0625 49.8125 C-134.42146577 39.97040571 -144.31527196 27.78446658 -145.25 13.0625 C-145.1501876 8.99322509 -144.53997467 6.30966397 -142 3 C-131.39096316 -3.04601024 -119.11719217 0.36545674 -108.0390625 3.02734375 C-107.33604004 3.19339111 -106.63301758 3.35943848 -105.90869141 3.53051758 C-104.32450962 3.9201801 -102.75364484 4.36352026 -101.1875 4.8203125 C-98.93669978 5.23185082 -98.93669978 5.23185082 -97.1484375 3.77734375 C-96.56320313 3.17019531 -95.97796875 2.56304687 -95.375 1.9375 C-71.16151045 -20.78244721 -26.0275518 -17.86478914 0 0 Z " fill="#C0F764" transform="translate(157,53)"/>
<path d="M0 0 C1.20720703 -0.00128906 2.41441406 -0.00257812 3.65820312 -0.00390625 C5.55795898 0.00189453 5.55795898 0.00189453 7.49609375 0.0078125 C8.76646484 0.00394531 10.03683594 0.00007813 11.34570312 -0.00390625 C13.15458008 -0.00197266 13.15458008 -0.00197266 15 0 C16.11318604 0.00112793 17.22637207 0.00225586 18.37329102 0.00341797 C20.93359375 0.1328125 20.93359375 0.1328125 21.93359375 1.1328125 C22.05871519 3.80983686 22.11965944 6.46233523 22.13891602 9.14086914 C22.14881561 9.97982224 22.15871521 10.81877533 22.16891479 11.68315125 C22.2006256 14.4697279 22.22532489 17.25632163 22.25 20.04296875 C22.27056127 21.96968542 22.29155751 23.89639749 22.31297302 25.82310486 C22.36827917 30.9046355 22.41765063 35.98620742 22.46582031 41.06781006 C22.51597313 46.2490203 22.57169158 51.4301703 22.62695312 56.61132812 C22.73463912 66.78510483 22.83606075 76.95893375 22.93359375 87.1328125 C26.53799125 83.60509639 29.44674423 80.1468956 32.24609375 75.9453125 C35.56858556 71.03458518 39.0537183 66.35242396 42.8125 61.76171875 C44.4373643 59.74784459 46.02179317 57.72048099 47.5859375 55.66015625 C48.03783447 55.06525391 48.48973145 54.47035156 48.95532227 53.85742188 C49.84295352 52.68522978 50.72766349 51.51081861 51.60913086 50.33398438 C54.71438116 46.24241879 54.71438116 46.24241879 56.93359375 45.1328125 C59.03888308 45.04737355 61.14690532 45.02566525 63.25390625 45.03515625 C64.51074219 45.03837891 65.76757812 45.04160156 67.0625 45.04492188 C68.38121094 45.05330078 69.69992187 45.06167969 71.05859375 45.0703125 C72.39843586 45.07532761 73.73827975 45.07989049 75.078125 45.08398438 C78.36332581 45.09580164 81.64843772 45.11227633 84.93359375 45.1328125 C85.51977539 46.99755859 85.51977539 46.99755859 85.93359375 49.1328125 C84.5546875 51.296875 84.5546875 51.296875 82.37109375 53.7578125 C81.12972656 55.20414063 81.12972656 55.20414063 79.86328125 56.6796875 C79.39760742 57.22173828 78.93193359 57.76378906 78.45214844 58.32226562 C75.53219997 61.80367043 72.77476016 65.41344267 69.99609375 69.0078125 C69.39740479 69.77899414 68.79871582 70.55017578 68.18188477 71.34472656 C65.42495104 74.89892257 62.67853622 78.46063176 59.953125 82.0390625 C59.50251709 82.62961426 59.05190918 83.22016602 58.58764648 83.82861328 C57.39534012 85.39392788 56.2072677 86.96246499 55.01953125 88.53125 C52.93359375 91.1328125 52.93359375 91.1328125 50.59765625 93.171875 C48.64634023 95.02814113 48.64634023 95.02814113 49.0078125 97.6796875 C49.97362126 100.23887695 50.83141089 101.46347104 52.74609375 103.3828125 C56.5064103 107.45970601 59.64715056 111.83982711 62.80859375 116.3828125 C68.93309926 125.16794031 75.22702516 133.77878896 81.93359375 142.1328125 C83.38926654 143.95175013 84.82677742 145.78536601 86.24609375 147.6328125 C86.96410156 148.550625 87.68210937 149.4684375 88.421875 150.4140625 C90.22533921 153.65750201 89.81936425 154.66102866 88.93359375 158.1328125 C84.53781614 158.19096362 80.14213777 158.22646017 75.74609375 158.2578125 C74.50021484 158.27457031 73.25433594 158.29132813 71.97070312 158.30859375 C70.76865234 158.31503906 69.56660156 158.32148438 68.328125 158.328125 C66.67067261 158.34383545 66.67067261 158.34383545 64.97973633 158.35986328 C61.83594315 158.1255339 59.72253064 157.58235761 56.93359375 156.1328125 C55.16629565 153.98783731 53.64232869 151.9375486 52.12109375 149.6328125 C51.23797549 148.34477529 50.35254344 147.05832153 49.46484375 145.7734375 C49.03300781 145.14501953 48.60117187 144.51660156 48.15625 143.86914062 C46.57470961 141.62315116 44.86907081 139.50112368 43.12109375 137.3828125 C39.25283554 132.62310384 35.61204492 127.71014687 31.99609375 122.7578125 C31.41561279 121.97180664 30.83513184 121.18580078 30.23706055 120.37597656 C29.69476807 119.62799805 29.15247559 118.88001953 28.59375 118.109375 C28.10527588 117.43986816 27.61680176 116.77036133 27.11352539 116.08056641 C25.90605623 114.08735536 25.36756772 112.41030281 24.93359375 110.1328125 C23.94359375 110.1328125 22.95359375 110.1328125 21.93359375 110.1328125 C21.93359375 125.9728125 21.93359375 141.8128125 21.93359375 158.1328125 C17.16921875 158.1534375 12.40484375 158.1740625 7.49609375 158.1953125 C5.99119385 158.2044165 4.48629395 158.21352051 2.93579102 158.22290039 C1.76072998 158.22539795 0.58566895 158.22789551 -0.625 158.23046875 C-2.43955688 158.23832397 -2.43955688 158.23832397 -4.29077148 158.24633789 C-7.06640625 158.1328125 -7.06640625 158.1328125 -8.06640625 157.1328125 C-8.16315191 155.12053205 -8.18827633 153.10479881 -8.18666077 151.0901947 C-8.18803543 149.77621201 -8.1894101 148.46222931 -8.19082642 147.10842896 C-8.18728679 145.63861062 -8.18365198 144.1687925 -8.17993164 142.69897461 C-8.17964978 141.16190086 -8.17980748 139.62482697 -8.18037415 138.0877533 C-8.18066216 133.9019839 -8.17476477 129.71624291 -8.16780019 125.53048015 C-8.16156734 121.16091094 -8.16096291 116.79134115 -8.15977478 112.42176819 C-8.15666126 104.14154203 -8.1484476 95.861329 -8.13842529 87.58110863 C-8.12726479 78.15684091 -8.12175386 68.73257258 -8.11672986 59.3082999 C-8.106265 39.91646331 -8.08866516 20.52463896 -8.06640625 1.1328125 C-5.31285665 -0.2439623 -3.07800216 0.00311561 0 0 Z " fill="#1A1E7B" transform="translate(214.06640625,32.8671875)"/>
<path d="M0 0 C7.7379684 7.02506536 11.36076158 15.54731578 12.20408249 25.92677307 C12.46578021 31.6624253 12.40526948 37.4007665 12.36328125 43.140625 C12.36021783 44.98195745 12.35834615 46.82329223 12.35760498 48.66462708 C12.35303244 52.49631819 12.33871417 56.32779555 12.31640625 60.15942383 C12.28790549 65.08021378 12.27716946 70.0008377 12.27272415 74.92170238 C12.26858106 78.71079678 12.25877652 82.49985745 12.24684906 86.28893471 C12.24114229 88.10510298 12.23638493 89.92127448 12.23258209 91.73744774 C12.22574779 94.2601642 12.21213492 96.78274605 12.19628906 99.30541992 C12.1951712 100.0590834 12.19405334 100.81274689 12.19290161 101.58924866 C12.14986093 106.73295157 12.14986093 106.73295157 11.03515625 107.84765625 C8.97460315 107.94759157 6.91063035 107.97846531 4.84765625 107.98046875 C3.59210938 107.98175781 2.3365625 107.98304688 1.04296875 107.984375 C0.38586914 107.98228027 -0.27123047 107.98018555 -0.94824219 107.97802734 C-2.9564571 107.97267859 -4.96444834 107.97797316 -6.97265625 107.984375 C-8.22820312 107.98308594 -9.48375 107.98179687 -10.77734375 107.98046875 C-11.93878906 107.97934082 -13.10023438 107.97821289 -14.296875 107.97705078 C-16.96484375 107.84765625 -16.96484375 107.84765625 -17.96484375 106.84765625 C-18.0685684 104.41531628 -18.10846212 102.01045177 -18.10668945 99.57739258 C-18.11016388 98.81635223 -18.11363831 98.05531189 -18.11721802 97.27120972 C-18.12458899 95.61242725 -18.12992719 93.95363483 -18.13350868 92.29483986 C-18.14065777 89.667644 -18.15631398 87.04063672 -18.17485046 84.41349792 C-18.22738266 76.94162642 -18.27527332 69.46985478 -18.29077148 61.99780273 C-18.30086457 57.4317703 -18.33022772 52.86620676 -18.37209129 48.30035973 C-18.38439278 46.56092568 -18.3895241 44.82142535 -18.38729286 43.08194923 C-18.38493457 40.64242379 -18.40714649 38.20423685 -18.43481445 35.76489258 C-18.42821304 35.04932693 -18.42161163 34.33376129 -18.41481018 33.59651184 C-18.50799818 28.57730658 -19.78199934 25.69519916 -22.96484375 21.84765625 C-28.74257046 18.56228224 -35.05111898 16.86193422 -41.5859375 18.5078125 C-48.65338005 21.10165843 -53.71964655 24.89366226 -56.96484375 31.84765625 C-59.36750502 40.13710663 -59.22593469 48.48734304 -59.16015625 57.04296875 C-59.15641767 58.48599042 -59.1535747 59.92901466 -59.15158081 61.37203979 C-59.14401075 65.13671095 -59.12442077 68.90122332 -59.10217285 72.66583252 C-59.0815701 76.52068943 -59.0725485 80.37557244 -59.0625 84.23046875 C-59.04116733 91.76960298 -59.00711342 99.30860721 -58.96484375 106.84765625 C-61.7708664 108.25066758 -64.11502742 107.97741045 -67.25 107.98046875 C-68.50232422 107.98175781 -69.75464844 107.98304688 -71.04492188 107.984375 C-72.35912109 107.98050781 -73.67332031 107.97664063 -75.02734375 107.97265625 C-76.34541016 107.97652344 -77.66347656 107.98039062 -79.02148438 107.984375 C-80.89803711 107.98244141 -80.89803711 107.98244141 -82.8125 107.98046875 C-83.96758057 107.97934082 -85.12266113 107.97821289 -86.31274414 107.97705078 C-88.96484375 107.84765625 -88.96484375 107.84765625 -89.96484375 106.84765625 C-90.06258315 105.40784411 -90.09116088 103.96326722 -90.09182739 102.5201416 C-90.09464722 101.586241 -90.09746704 100.65234039 -90.10037231 99.69013977 C-90.09834808 98.65737411 -90.09632385 97.62460846 -90.09423828 96.56054688 C-90.0959906 95.47936081 -90.09774292 94.39817474 -90.09954834 93.28422546 C-90.10396933 89.69076966 -90.10102799 86.0973626 -90.09765625 82.50390625 C-90.09832922 80.01908356 -90.09929918 77.53426094 -90.10055542 75.04943848 C-90.10222233 69.1645225 -90.09870952 63.27962438 -90.09340465 57.39471102 C-90.08964983 52.69396027 -90.09097742 47.99323044 -90.09521484 43.29248047 C-90.10099412 36.82691335 -90.10192828 30.36136654 -90.09865952 23.89579773 C-90.09799 21.42372127 -90.09881952 18.95164395 -90.10113907 16.47956848 C-90.10366414 13.03127727 -90.09982705 9.5830519 -90.09423828 6.13476562 C-90.09626251 5.10199997 -90.09828674 4.06923431 -90.10037231 3.00517273 C-90.09755249 2.07127213 -90.09473267 1.13737152 -90.09182739 0.1751709 C-90.09145037 -0.64116066 -90.09107334 -1.45749222 -90.09068489 -2.2985611 C-89.96484375 -4.15234375 -89.96484375 -4.15234375 -88.96484375 -5.15234375 C-86.97727347 -5.25217433 -84.98616855 -5.28315128 -82.99609375 -5.28515625 C-81.78566406 -5.28644531 -80.57523437 -5.28773437 -79.328125 -5.2890625 C-78.05324219 -5.28519531 -76.77835937 -5.28132813 -75.46484375 -5.27734375 C-73.55251953 -5.28314453 -73.55251953 -5.28314453 -71.6015625 -5.2890625 C-69.78591797 -5.28712891 -69.78591797 -5.28712891 -67.93359375 -5.28515625 C-66.81404297 -5.28402832 -65.69449219 -5.28290039 -64.54101562 -5.28173828 C-61.96484375 -5.15234375 -61.96484375 -5.15234375 -60.96484375 -4.15234375 C-60.72805659 -1.45998599 -60.5428635 1.21263781 -60.40234375 3.91015625 C-60.35916016 4.66876953 -60.31597656 5.42738281 -60.27148438 6.20898438 C-60.16510742 8.08831063 -60.06444441 9.96795869 -59.96484375 11.84765625 C-59.46984375 10.83703125 -58.97484375 9.82640625 -58.46484375 8.78515625 C-54.13386039 1.27811843 -47.13583298 -3.54099668 -38.96484375 -6.15234375 C-25.88518671 -8.83260134 -11.04288539 -8.15690445 0 0 Z " fill="#181C79" transform="translate(467.96484375,83.15234375)"/>
<path d="M0 0 C9.24 0 18.48 0 28 0 C29.83218283 3.66436565 30.25030147 4.72426616 30.25396729 8.5296936 C30.25960693 9.43261642 30.26524658 10.33553925 30.27105713 11.26582336 C30.26700867 12.24882919 30.26296021 13.23183502 30.25878906 14.24462891 C30.2622937 15.28563248 30.26579834 16.32663605 30.26940918 17.39918518 C30.27821534 20.84171201 30.27238203 24.28403356 30.265625 27.7265625 C30.26697176 30.11502115 30.26891239 32.50347954 30.27142334 34.89193726 C30.27437292 39.89706025 30.27008145 44.90211186 30.26074219 49.90722656 C30.24933548 56.33480303 30.25591597 62.76221272 30.26788712 69.1897831 C30.27509963 74.12070991 30.2728208 79.05159689 30.26763153 83.98252487 C30.26629399 86.35329584 30.26794639 88.72407039 30.27259064 91.09483719 C30.27764718 94.40137628 30.26995838 97.70764156 30.25878906 101.01416016 C30.26283752 102.00121445 30.26688599 102.98826874 30.27105713 104.00523376 C30.26541748 104.90251694 30.25977783 105.79980011 30.25396729 106.72427368 C30.25321323 107.50628962 30.25245918 108.28830555 30.25168228 109.09401894 C30 111 30 111 28 113 C25.31030273 113.24291992 25.31030273 113.24291992 21.93359375 113.23046875 C20.72638672 113.22853516 19.51917969 113.22660156 18.27539062 113.22460938 C17.00888672 113.21236328 15.74238281 113.20011719 14.4375 113.1875 C13.16712891 113.18685547 11.89675781 113.18621094 10.58789062 113.18554688 C1.14010053 113.14010053 1.14010053 113.14010053 0 112 C-0.0956161 110.54518505 -0.12188351 109.08574514 -0.12025452 107.62779236 C-0.12231651 106.21215248 -0.12231651 106.21215248 -0.12442017 104.76791382 C-0.12082489 103.72422638 -0.11722961 102.68053894 -0.11352539 101.60522461 C-0.11367142 100.51267868 -0.11381744 99.42013275 -0.1139679 98.29447937 C-0.11326822 94.66374767 -0.10547329 91.03306654 -0.09765625 87.40234375 C-0.09579226 84.89270557 -0.09436827 82.38306702 -0.09336853 79.87342834 C-0.08993348 73.93065407 -0.08204273 67.98789616 -0.07201904 62.04513031 C-0.05976253 54.61798075 -0.05437792 47.19082895 -0.04882812 39.76367188 C-0.03808811 26.50910345 -0.02049008 13.25455694 0 0 Z " fill="#141977" transform="translate(319,78)"/>
<path d="M0 0 C2.6875 2.375 2.6875 2.375 5 5 C5.55300781 5.57363281 6.10601562 6.14726563 6.67578125 6.73828125 C20.42910684 21.43401887 23.37595275 41.74926912 23.25 61.125 C23.26160156 62.92130859 23.26160156 62.92130859 23.2734375 64.75390625 C23.25813024 71.74167004 22.71079939 78.21720652 21 85 C12.5324145 77.99795814 12.5324145 77.99795814 10 74 C9.83899304 71.26873643 9.8623821 68.88724437 10.0625 66.1875 C10.52465491 53.29057694 6.61864572 41.48037582 -1 31 C-1.47695312 30.31808594 -1.95390625 29.63617188 -2.4453125 28.93359375 C-9.6545084 19.67756585 -22.41202936 11.85018019 -34 10 C-48.35554127 8.74521936 -61.60718079 8.98762525 -74.36328125 16.3671875 C-78.48682996 17.35683919 -81.3017982 15.5581614 -85 13.75 C-86.39563451 13.09853223 -87.79146342 12.44748073 -89.1875 11.796875 C-89.84105469 11.48556641 -90.49460937 11.17425781 -91.16796875 10.85351562 C-93.41038118 9.80880962 -95.69004953 8.88427791 -98 8 C-96.66913239 4.40665746 -94.47135442 2.55577433 -91.49609375 0.22265625 C-89.85822773 -1.04768906 -89.85822773 -1.04768906 -88.1875 -3.0625 C-66.28379674 -22.46292288 -21.79795203 -14.96167675 0 0 Z " fill="#141976" transform="translate(157,53)"/>
<path d="M0 0 C1.27078793 0.93010781 2.53839665 1.86456012 3.8046875 2.80078125 C4.51093262 3.32067627 5.21717773 3.84057129 5.94482422 4.3762207 C7.84095341 5.87433845 9.47696566 7.42530495 11.125 9.1875 C14.48654206 12.67296988 18.18377829 15.59908753 22 18.5625 C22.61270752 19.03985596 23.22541504 19.51721191 23.85668945 20.0090332 C26.37440175 21.96748012 28.89615609 23.92023583 31.42578125 25.86328125 C35.04842044 28.76589277 36.35158976 30.43824328 37 35 C29.43829096 30.30257468 22.74411434 24.77414866 16 19 C17.85339534 31.97376737 24.57475084 44.96453872 35 53 C48.73282881 62.83185816 61.30713919 66.45583112 78 65 C79.65 64.67 81.3 64.34 83 64 C79.04 62.02 75.08 60.04 71 58 C71 57.67 71 57.34 71 57 C78.09121223 56.39287567 82.17012506 58.17737976 88.25 61.6875 C89.91579022 62.60941611 91.58376394 63.52739802 93.25390625 64.44140625 C94.05973145 64.88371582 94.86555664 65.32602539 95.69580078 65.78173828 C100.30962221 68.22112893 105.12260788 70.15029041 110 72 C109.41015625 73.8359375 109.41015625 73.8359375 108 76 C105.05859375 77.4140625 105.05859375 77.4140625 101.4375 78.625 C100.26058594 79.02976562 99.08367187 79.43453125 97.87109375 79.8515625 C96.58336515 80.24315056 95.29288222 80.62577849 94 81 C93.36545898 81.19126465 92.73091797 81.3825293 92.07714844 81.57958984 C85.29890982 83.36949352 78.44006901 83.3722306 71.47314453 83.37060547 C69.39920998 83.37494929 67.32746217 83.41128484 65.25390625 83.44921875 C48.92660828 83.58814456 31.99552612 79.39200205 19.74609375 67.90625 C12.27918081 59.75445243 6.3977865 51.64212376 3 41 C2.74033447 40.25290771 2.48066895 39.50581543 2.21313477 38.73608398 C-0.36229833 30.60086559 -0.34851011 22.77515098 -0.1875 14.3125 C-0.17241097 12.91733232 -0.15873009 11.52214866 -0.14648438 10.12695312 C-0.11143868 6.75088416 -0.06230508 3.37565724 0 0 Z " fill="#141976" transform="translate(40,109)"/>
<path d="M0 0 C4.20181703 3.13997035 8.39141415 6.29463559 12.55859375 9.48046875 C22.47250618 17.03016992 32.49308609 24.23416792 43.08789062 30.80102539 C44.43171886 31.64366334 45.76281378 32.50678502 47.08398438 33.38452148 C50.71966734 35.76905677 53.54048964 37.60346045 58 37.8125 C58.763125 37.86019531 59.52625 37.90789062 60.3125 37.95703125 C60.869375 37.97121094 61.42625 37.98539063 62 38 C60.68 38.66 59.36 39.32 58 40 C61.63 41.98 65.26 43.96 69 46 C69 46.33 69 46.66 69 47 C53.4732616 50.03141083 38.91851637 48.36117524 25.4453125 39.76171875 C12.72280555 30.59582317 4.09757898 19.27279437 0 4 C0 2.68 0 1.36 0 0 Z " fill="#BDF363" transform="translate(55,127)"/>
<path d="M0 0 C8.00180661 -0.54249536 14.46595398 1.39161312 22 4 C19.32877041 8.5092316 16.48652583 12.89374969 13.62109375 17.28125 C12.11544494 19.80638632 11.00389804 22.24302628 10 25 C6.00697988 23.66899329 4.64041458 21.08965956 2.375 17.75 C1.96765625 17.17636719 1.5603125 16.60273437 1.140625 16.01171875 C-1.11169978 12.73764398 -2.76015571 10.00882597 -3 6 C-1.5625 2.6875 -1.5625 2.6875 0 0 Z " fill="#0C1270" transform="translate(48,74)"/>
<path d="M0 0 C9.86143187 9.29792148 9.86143187 9.29792148 10.125 14.4375 C8.46964163 18.20803851 6.29422149 21.58829793 4 25 C-8.66970387 23.07289294 -8.66970387 23.07289294 -14 21 C-12.62038248 17.92134612 -10.99876869 15.75701256 -8.6875 13.3125 C-5.01613443 9.23405833 -2.4548002 4.88697552 0 0 Z " fill="#0D1370" transform="translate(163,141)"/>
<path d="M0 0 C5.27489425 3.29931598 10.51391623 6.61114294 15.5625 10.25 C21.2116432 14.27329223 27.15547317 17.80467953 33.10766602 21.35644531 C33.86877686 21.81374023 34.6298877 22.27103516 35.4140625 22.7421875 C36.1045166 23.1532373 36.7949707 23.56428711 37.50634766 23.98779297 C37.99925293 24.32182129 38.4921582 24.65584961 39 25 C39 25.33 39 25.66 39 26 C32.13584327 26.80754785 28.34419217 24.26367155 22.75 20.5 C21.91605713 19.95480713 21.08211426 19.40961426 20.22290039 18.84790039 C17.80036727 17.25286039 15.39657632 15.63372391 13 14 C12.36755371 13.56929199 11.73510742 13.13858398 11.08349609 12.69482422 C2.54789119 6.82183679 2.54789119 6.82183679 0 3 C0 2.01 0 1.02 0 0 Z " fill="#FAFEF4" transform="translate(76,139)"/>
<path d="M0 0 C0.99 0.33 1.98 0.66 3 1 C1.7625 1.61875 1.7625 1.61875 0.5 2.25 C-2.9223734 6.01461074 -2.82587386 8.59955173 -2.61328125 13.57421875 C-0.81729268 23.60658802 5.42064238 32.44073806 12 40 C11.67 40.66 11.34 41.32 11 42 C2.39402034 33.34931395 -4.46142705 23.48252391 -5.25 11.0625 C-5.20502744 7.10491482 -4.13828601 4.37191255 -2 1 C-1.34 0.67 -0.68 0.34 0 0 Z " fill="#F6FEE9" transform="translate(17,55)"/>
<path d="M0 0 C2 2 2 2 2.375 4.9375 C2 8 2 8 0.25 9.9375 C-2 11 -2 11 -6 10 C-4.02 6.7 -2.04 3.4 0 0 Z " fill="#F3F7F0" transform="translate(173,155)"/>
<path d="M0 0 C-1.44077046 3.36179774 -3.24750021 5.59156268 -6 8 C-6.66 8 -7.32 8 -8 8 C-6.48291727 4.46014029 -4.24676932 0 0 0 Z " fill="#767AB2" transform="translate(419,83)"/>
</svg>
